<svg xmlns="http://www.w3.org/2000/svg" viewBox="0 0 167.64 37.32"><defs><style>.cls-1{fill:#ed0007;fill-rule:evenodd;}</style></defs><g id="Layer_2" data-name="Layer 2"><g id="Layer_1-2" data-name="Layer 1"><g id="logotype"><path id="logotype-b-47" class="cls-1" d="M71.7,18.08a5.32,5.32,0,0,0,3.41-5c0-4.53-3.21-6.78-7.63-6.78H55.91V30.9H68.49c3.87,0,7.67-2.71,7.67-6.85A6.1,6.1,0,0,0,71.7,18.08ZM62,11.38h4.49a2.19,2.19,0,0,1,2.32,2h0v.27A2.29,2.29,0,0,1,66.44,16H61.91Zm4.53,14.37H62V20.91h4.37c2.21,0,3.25,1,3.25,2.4C69.61,25.1,68.3,25.75,66.48,25.75Z"/><path id="logotype-o-47" class="cls-1" d="M89.47,5.65c-7.12,0-11.3,5.69-11.3,12.9s4.18,12.89,11.3,12.89,11.31-5.65,11.31-12.89S96.64,5.65,89.47,5.65Zm0,19.9c-3.48,0-5.22-3.13-5.22-7s1.74-7,5.22-7,5.27,3.13,5.27,7S93,25.55,89.47,25.55Z"/><path id="logotype-s-47" class="cls-1" d="M113.9,16l-.85-.19c-2.09-.43-3.75-1-3.75-2.48s1.58-2.28,3-2.28a6.87,6.87,0,0,1,5,2.28l3.83-3.79a11.45,11.45,0,0,0-9-3.88C107,5.61,103,8.52,103,13.36c0,4.41,3.18,6.58,7,7.39l.85.2c3.22.65,4.42,1.16,4.42,2.71S114,26.09,112,26.09a7.73,7.73,0,0,1-6.24-3.17l-3.91,3.87c2.17,2.6,4.92,4.61,10.22,4.61,4.61,0,9.53-2.63,9.53-8C121.69,17.77,117.43,16.69,113.9,16Z"/><path id="logotype-c-47" class="cls-1" d="M135.39,25.55c-2.71,0-5.53-2.24-5.53-7.16,0-4.37,2.63-6.81,5.38-6.81a4.74,4.74,0,0,1,4.45,2.75l5-3.3c-2.48-3.75-5.43-5.34-9.49-5.34-7.43,0-11.46,5.77-11.46,12.74,0,7.32,4.45,13.05,11.38,13.05,4.88,0,7.2-1.71,9.72-5.35l-5-3.36C138.8,24.39,137.71,25.55,135.39,25.55Z"/><polygon id="logotype-h-47" class="cls-1" points="161.18 6.27 161.18 15.33 153.71 15.33 153.71 6.27 147.24 6.27 147.24 30.9 153.71 30.9 153.71 21.18 161.18 21.18 161.18 30.9 167.64 30.9 167.64 6.27 161.18 6.27"/></g><g id="symbol"><path d="M18.66,0A18.66,18.66,0,1,0,37.32,18.66,18.65,18.65,0,0,0,18.66,0Zm0,35.58A16.92,16.92,0,1,1,35.58,18.66,16.92,16.92,0,0,1,18.66,35.58Z"/><path d="M26.37,7H25.09V13.4H12.27V7H11a14,14,0,0,0,0,23.31h1.31V23.93H25.09v6.39h1.28a14,14,0,0,0,0-23.3ZM10.49,27.81a12.24,12.24,0,0,1-1-17.27h0a12.27,12.27,0,0,1,1-1Zm14.6-5.66H12.27v-7H25.09Zm1.74,5.62V23.9h0V13.4h0V9.52a12.26,12.26,0,0,1,.93,17.31h0q-.45.5-.93.93Z"/></g></g></g></svg>