<?xml version="1.0" encoding="UTF-8"?>
<svg xmlns="http://www.w3.org/2000/svg" viewBox="0 0 192 192" width="32" height="32"><path d="M120 80H56v-8h64v8zm0 12H56v8h64v-8zm-24 20H56v8h40v-8zm80 32c0-17.645-14.355-32-32-32s-32 14.355-32 32 14.355 32 32 32 32-14.355 32-32zm-8 0c0 13.234-10.766 24-24 24s-24-10.766-24-24 10.766-24 24-24 24 10.766 24 24zm-14.829-2.829L148 146.343V128h-8v18.343l-5.171-5.172-5.658 5.658L144 161.657l14.829-14.828-5.658-5.658zM120 175.978V176H40V16h81.815L152 50.497v54.308a40.027 40.027 0 0 0-8-.805V56h-28V24H48v144h64.022a40.342 40.342 0 0 0 7.978 7.978zM124 48h15.185L124 30.646V48z" style="fill: #007bc0;"/></svg>
