<?xml version="1.0" encoding="utf-8"?>
<!-- Generator: Adobe Illustrator 24.2.3, SVG Export Plug-In . SVG Version: 6.00 Build 0)  -->
<svg version="1.1" id="Layer_1" xmlns="http://www.w3.org/2000/svg" xmlns:xlink="http://www.w3.org/1999/xlink" x="0px" y="0px"
	 viewBox="0 0 467 279" style="enable-background:new 0 0 467 279;" xml:space="preserve">
<style type="text/css">
	
	
	#cloud1
	{
	    animation: nudgecloud 100s linear infinite alternate;
	}
	@keyframes nudgecloud {
  0%, 100% {
    transform: translate(200px, 0);
  }
  
  30% {
    transform: translate(0px, 0px);
  }
  
  80% {
    transform: translate(0px, 0px);
  }
}
	
	#cloud2
	{
	    animation: nudgecloud2 100s linear infinite alternate;
	}
	@keyframes nudgecloud2 {
  0%, 100% {
    transform: translate(-100px, 0);
  }
  
  30% {
    transform: translate(0px, 0px);
  }
  
  80% {
    transform: translate(0px, 0px);
  }
}
	
	#handnoresult
	{
	    animation: nudgehand 3s linear infinite alternate;
	}
	@keyframes nudgehand {
  0%, 100% {
    transform: translate(0px, 0);
  }
  
  30% {
    transform: translate(0px, 1px);
  }
  
  80% {
    transform: translate(1px, 0px);
  }
}
	#headnoresult
	{
	    animation: nudgehead 3s linear infinite alternate;
	}
	@keyframes nudgehead {
  0%, 100% {
    transform: translate(0px, 0);
  }
  
  30% {
    transform: translate(2px, 1px);
  }
  
  80% {
    transform: translate(0px, 0px);
  }
}
	#totalsearch
	{animation: 
      nudgetotal 2.5s linear infinite alternate;
}
	@keyframes nudgetotal {
  0%, 100% {
    transform: translate(10px, 0);
  }
  
  30% {
    transform: translate(-10px, 20px);
  }
  
  80% {
    transform: translate(20px, 10px);
  }
}

	.st0{opacity:0.42;}
	.st1{clip-path:url(#SVGID_2_);fill:#DFEAF4;}
	.st2{fill:#FFFFFF;}
	.st3{opacity:0.7;}
	.st4{clip-path:url(#SVGID_4_);fill:#DFEAF4;}
	.st5{fill:#007BC0;}
	.st6{fill:#E8F1FF;}
	.st7{fill:#7EBDFF;}
	.st8{clip-path:url(#SVGID_6_);fill-rule:evenodd;clip-rule:evenodd;fill:#FFCF00;}
	.st9{clip-path:url(#SVGID_6_);fill-rule:evenodd;clip-rule:evenodd;fill:#FFFFFF;}
	.st10{clip-path:url(#SVGID_6_);fill:#98B6E2;}
	.st11{clip-path:url(#SVGID_8_);fill:#DFEAF4;}
	.st12{clip-path:url(#SVGID_10_);fill:#DFEAF4;}
	.st13{fill:#B8D6FF;}
	.st14{fill:#C1C7CC;}
	.st15{fill-rule:evenodd;clip-rule:evenodd;fill:#FFFFFF;}
	.st16{fill:#D0D4D8;}
	.st17{fill:#E0E2E5;}
	.st18{fill:#71767C;}
	.st19{fill:#EFF1F2;}
	.st20{fill:#002742;}
	.st21{fill:#0096E8;}
	.st22{fill:#00629A;}
	.st23{fill-rule:evenodd;clip-rule:evenodd;fill:#A1DFDB;}
	.st24{fill:#595E62;}
	.st25{fill:#43464A;}
	.st26{fill:#98B6E2;}
</style>
<g class="st0">
	<g>
		<defs>
			<rect id="SVGID_1_" x="16.66" y="55.44" width="434.43" height="214.56"/>
		</defs>
		<clipPath id="SVGID_2_">
			<use xlink:href="#SVGID_1_"  style="overflow:visible;"/>
		</clipPath>
		<path class="st1" d="M22.41,270c0,0-22-45,20-72c0,0-31-52,39-110c0,0,27-26,85-14c0,0,36-30,73-5c0,0,105-50,148,42
			c0,0,48,26,24,90c0,0,54,29,36,65L22.41,270z"/>
	</g>
</g>
<path class="st2" d="M244.41,191h-9c1.07-1.22,2.69-2,4.5-2C241.73,189,243.35,189.78,244.41,191"/>
<g class="st3">
	<g>
		<defs>
			<rect id="SVGID_3_" x="341.63" y="159.36" width="34.74" height="108.64"/>
		</defs>
		<clipPath id="SVGID_4_">
			<use xlink:href="#SVGID_3_"  style="overflow:visible;"/>
		</clipPath>
		<path class="st4" d="M376.37,268h-34.74V159.36h34.74V268z M344.66,264.97h28.68V162.39h-28.68V264.97z"/>
		<path class="st4" d="M346.81,171.23h24.38v-6.57h-24.38V171.23z M357.42,167.7h-8.34v-1.01h8.34V167.7z M361.71,169.21
			c-0.7,0-1.26-0.56-1.26-1.26c0-0.7,0.57-1.26,1.26-1.26c0.7,0,1.26,0.56,1.26,1.26C362.98,168.65,362.41,169.21,361.71,169.21
			 M366.89,169.21c-0.7,0-1.26-0.56-1.26-1.26c0-0.7,0.57-1.26,1.26-1.26c0.7,0,1.26,0.56,1.26,1.26
			C368.15,168.65,367.59,169.21,366.89,169.21"/>
		<path class="st4" d="M346.81,179.57h24.38V173h-24.38V179.57z M357.42,176.03h-8.34v-1.01h8.34V176.03z M361.71,177.55
			c-0.7,0-1.26-0.56-1.26-1.26c0-0.7,0.57-1.26,1.26-1.26c0.7,0,1.26,0.56,1.26,1.26C362.98,176.99,362.41,177.55,361.71,177.55
			 M366.89,177.55c-0.7,0-1.26-0.56-1.26-1.26c0-0.7,0.57-1.26,1.26-1.26c0.7,0,1.26,0.56,1.26,1.26
			C368.15,176.99,367.59,177.55,366.89,177.55"/>
		<path class="st4" d="M346.81,187.91h24.38v-6.57h-24.38V187.91z M357.42,184.37h-8.34v-1.01h8.34V184.37z M361.71,185.89
			c-0.7,0-1.26-0.57-1.26-1.26c0-0.7,0.57-1.26,1.26-1.26c0.7,0,1.26,0.57,1.26,1.26C362.98,185.32,362.41,185.89,361.71,185.89
			 M366.89,185.89c-0.7,0-1.26-0.57-1.26-1.26c0-0.7,0.57-1.26,1.26-1.26c0.7,0,1.26,0.57,1.26,1.26
			C368.15,185.32,367.59,185.89,366.89,185.89"/>
		<path class="st4" d="M346.81,196.25h24.38v-6.57h-24.38V196.25z M357.42,192.71h-8.34v-1.01h8.34V192.71z M361.71,194.23
			c-0.7,0-1.26-0.56-1.26-1.26c0-0.7,0.57-1.26,1.26-1.26c0.7,0,1.26,0.56,1.26,1.26C362.98,193.66,362.41,194.23,361.71,194.23
			 M366.89,194.23c-0.7,0-1.26-0.56-1.26-1.26c0-0.7,0.57-1.26,1.26-1.26c0.7,0,1.26,0.56,1.26,1.26
			C368.15,193.66,367.59,194.23,366.89,194.23"/>
		<path class="st4" d="M346.81,204.58h24.38v-6.57h-24.38V204.58z M357.42,201.05h-8.34v-1.01h8.34V201.05z M361.71,202.56
			c-0.7,0-1.26-0.57-1.26-1.26c0-0.7,0.57-1.26,1.26-1.26c0.7,0,1.26,0.57,1.26,1.26C362.98,202,362.41,202.56,361.71,202.56
			 M366.89,202.56c-0.7,0-1.26-0.57-1.26-1.26c0-0.7,0.57-1.26,1.26-1.26c0.7,0,1.26,0.57,1.26,1.26
			C368.15,202,367.59,202.56,366.89,202.56"/>
		<path class="st4" d="M346.81,212.92h24.38v-6.57h-24.38V212.92z M357.42,209.38h-8.34v-1.01h8.34V209.38z M361.71,210.9
			c-0.7,0-1.26-0.57-1.26-1.26s0.57-1.26,1.26-1.26c0.7,0,1.26,0.57,1.26,1.26S362.41,210.9,361.71,210.9 M366.89,210.9
			c-0.7,0-1.26-0.57-1.26-1.26s0.57-1.26,1.26-1.26c0.7,0,1.26,0.57,1.26,1.26S367.59,210.9,366.89,210.9"/>
		<path class="st4" d="M346.81,221.26h24.38v-6.57h-24.38V221.26z M357.42,217.72h-8.34v-1.01h8.34V217.72z M361.71,219.24
			c-0.7,0-1.26-0.56-1.26-1.26c0-0.7,0.57-1.26,1.26-1.26c0.7,0,1.26,0.56,1.26,1.26C362.98,218.67,362.41,219.24,361.71,219.24
			 M366.89,219.24c-0.7,0-1.26-0.56-1.26-1.26c0-0.7,0.57-1.26,1.26-1.26c0.7,0,1.26,0.56,1.26,1.26
			C368.15,218.67,367.59,219.24,366.89,219.24"/>
		<path class="st4" d="M346.81,229.6h24.38v-6.57h-24.38V229.6z M357.42,226.06h-8.34v-1.01h8.34V226.06z M361.71,227.58
			c-0.7,0-1.26-0.57-1.26-1.26c0-0.7,0.57-1.26,1.26-1.26c0.7,0,1.26,0.57,1.26,1.26C362.98,227.01,362.41,227.58,361.71,227.58
			 M366.89,227.58c-0.7,0-1.26-0.57-1.26-1.26c0-0.7,0.57-1.26,1.26-1.26c0.7,0,1.26,0.57,1.26,1.26
			C368.15,227.01,367.59,227.58,366.89,227.58"/>
		<path class="st4" d="M346.81,237.93h24.38v-6.57h-24.38V237.93z M357.42,234.4h-8.34v-1.01h8.34V234.4z M361.71,235.91
			c-0.7,0-1.26-0.56-1.26-1.26c0-0.7,0.57-1.26,1.26-1.26c0.7,0,1.26,0.56,1.26,1.26C362.98,235.35,362.41,235.91,361.71,235.91
			 M366.89,235.91c-0.7,0-1.26-0.56-1.26-1.26c0-0.7,0.57-1.26,1.26-1.26c0.7,0,1.26,0.56,1.26,1.26
			C368.15,235.35,367.59,235.91,366.89,235.91"/>
		<path class="st4" d="M346.81,246.27h24.38v-6.57h-24.38V246.27z M357.42,242.74h-8.34v-1.01h8.34V242.74z M361.71,244.25
			c-0.7,0-1.26-0.57-1.26-1.26c0-0.7,0.57-1.26,1.26-1.26c0.7,0,1.26,0.57,1.26,1.26C362.98,243.69,362.41,244.25,361.71,244.25
			 M366.89,244.25c-0.7,0-1.26-0.57-1.26-1.26c0-0.7,0.57-1.26,1.26-1.26c0.7,0,1.26,0.57,1.26,1.26
			C368.15,243.69,367.59,244.25,366.89,244.25"/>
		<path class="st4" d="M346.81,254.61h24.38v-6.57h-24.38V254.61z M357.42,251.07h-8.34v-1.01h8.34V251.07z M361.71,252.59
			c-0.7,0-1.26-0.57-1.26-1.26s0.57-1.26,1.26-1.26c0.7,0,1.26,0.57,1.26,1.26S362.41,252.59,361.71,252.59 M366.89,252.59
			c-0.7,0-1.26-0.57-1.26-1.26s0.57-1.26,1.26-1.26c0.7,0,1.26,0.57,1.26,1.26S367.59,252.59,366.89,252.59"/>
		<path class="st4" d="M346.81,262.95h24.38v-6.57h-24.38V262.95z M357.42,259.41h-8.34v-1.01h8.34V259.41z M361.71,260.93
			c-0.7,0-1.26-0.57-1.26-1.26c0-0.7,0.57-1.26,1.26-1.26c0.7,0,1.26,0.57,1.26,1.26C362.98,260.36,362.41,260.93,361.71,260.93
			 M366.89,260.93c-0.7,0-1.26-0.57-1.26-1.26c0-0.7,0.57-1.26,1.26-1.26c0.7,0,1.26,0.57,1.26,1.26
			C368.15,260.36,367.59,260.93,366.89,260.93"/>
	</g>
</g>
<path class="st5" d="M337.12,267.71h-201.8c-6.96,0-12.6-5.64-12.6-12.6V119.3c0-6.96,5.64-12.6,12.6-12.6h201.8
	c6.96,0,12.6,5.64,12.6,12.6v135.8C349.72,262.06,344.08,267.71,337.12,267.71"/>
<rect x="129.23" y="115.71" class="st2" width="213.99" height="143"/>
<rect x="129.52" y="115.65" class="st6" width="214" height="11"/>
<path class="st7" d="M137.52,121.15c0,1.38-1.12,2.5-2.5,2.5c-1.38,0-2.5-1.12-2.5-2.5c0-1.38,1.12-2.5,2.5-2.5
	C136.4,118.65,137.52,119.77,137.52,121.15"/>
<path class="st7" d="M145.52,121.15c0,1.38-1.12,2.5-2.5,2.5c-1.38,0-2.5-1.12-2.5-2.5c0-1.38,1.12-2.5,2.5-2.5
	C144.4,118.65,145.52,119.77,145.52,121.15"/>
<path class="st5" d="M153.52,121.15c0,1.38-1.12,2.5-2.5,2.5c-1.38,0-2.5-1.12-2.5-2.5c0-1.38,1.12-2.5,2.5-2.5
	C152.4,118.65,153.52,119.77,153.52,121.15"/>
<g>
	<defs>
		<rect id="SVGID_5_" x="-18.09" y="-34.5" width="500" height="341"/>
	</defs>
	<clipPath id="SVGID_6_">
		<use xlink:href="#SVGID_5_"  style="overflow:visible;"/>
	</clipPath>
	<path class="st8" d="M194.19,268.53h-13.85c-1.83,0-2.97-1.98-2.06-3.56l6.93-11.99l6.92-11.99c0.91-1.58,3.2-1.58,4.11,0
		l6.92,11.99l6.93,11.99c0.91,1.58-0.23,3.56-2.06,3.56H194.19z"/>
	<rect x="193.36" y="247.32" class="st9" width="1.66" height="13.27"/>
	<path class="st9" d="M195.43,263.08c0,0.69-0.56,1.24-1.24,1.24c-0.69,0-1.25-0.56-1.25-1.24c0-0.69,0.56-1.24,1.25-1.24
		C194.87,261.83,195.43,262.39,195.43,263.08"/>
	<rect x="21.72" y="267" class="st10" width="425" height="2"/>
</g>
<g id="cloud1" class="st3">
	<g>
		<defs>
			<rect id="SVGID_7_" x="75.41" y="16" width="45.19" height="22"/>
		</defs>
		<clipPath id="SVGID_8_">
			<use xlink:href="#SVGID_7_"  style="overflow:visible;"/>
		</clipPath>
		<path class="st11" d="M120.6,32.65c0,1.48-0.6,2.82-1.57,3.78c-0.96,0.97-2.31,1.57-3.78,1.57H80.77c-2.95,0-5.35-2.4-5.35-5.35
			c0-1.47,0.6-2.82,1.57-3.78c0.96-0.97,2.31-1.57,3.78-1.57h0.01c0.15-2.98,2.62-5.35,5.64-5.35c0.78,0,1.52,0.15,2.2,0.44
			c1.47-3.74,5.13-6.39,9.39-6.39c4.57,0,8.42,3.03,9.68,7.18c2.44,0.28,4.47,1.9,5.33,4.11h2.23
			C118.21,27.3,120.6,29.69,120.6,32.65"/>
	</g>
</g>
<g id="cloud2" class="st3">
	<g>
		<defs>
			<rect id="SVGID_9_" x="417.38" y="38" width="22.6" height="11"/>
		</defs>
		<clipPath id="SVGID_10_">
			<use xlink:href="#SVGID_9_"  style="overflow:visible;"/>
		</clipPath>
		<path class="st12" d="M439.98,46.32c0,0.74-0.3,1.41-0.79,1.89c-0.48,0.49-1.15,0.79-1.89,0.79h-17.24c-1.48,0-2.68-1.2-2.68-2.68
			c0-0.74,0.3-1.41,0.78-1.89c0.48-0.48,1.15-0.79,1.89-0.79h0c0.08-1.49,1.31-2.68,2.82-2.68c0.39,0,0.76,0.08,1.1,0.22
			c0.74-1.87,2.56-3.19,4.7-3.19c2.28,0,4.21,1.51,4.84,3.59c1.22,0.14,2.23,0.95,2.67,2.06h1.11
			C438.78,43.65,439.98,44.85,439.98,46.32"/>
	</g>
</g>
<g id="headnoresult">
	<path class="st13" d="M112.87,192.43h-3.62c-1.64,1.44-2.33,0.48-3.36-2.19c-0.56-1.55-0.97-3.15-1.22-4.78
		c0.82-0.89,2.08-1.97,1.22-4.12c0,0,2.26,1.64,4.52,1.03c2.26-0.62,2.6-1.07,3.49-0.82c0.88,0.25,1.48,0.96,1.81,1.48
		c0.02,0.11,0.04,0.21,0.06,0.32c0,0,0,0.88-0.1,2.22c-0.13,1.64-0.41,3.26-0.82,4.85c-0.05,0.18-0.09,0.34-0.14,0.51v-0.02
		C114.34,192.41,113.76,193.58,112.87,192.43"/>
	<g>
		<path class="st13" d="M100.92,203.67h10.16c0,0-0.34-2.77-0.67-5.6h-2.28c-1.85,0-3.98-1.21-4.11-3.27
			c-0.02-0.38,0.12-3.39,0.19-4.27l-0.11,1.21l0.11-1.21l0.25-2.91c-0.14-0.32-0.3-0.63-0.48-0.92c-0.55-0.9-1.51-1.98-2.47-0.92
			c-1.06,1.15,0.56,4.06,1.64,5.73l-0.2,1.01L100.92,203.67z"/>
		<path class="st14" d="M101.17,179.9c0,0,0-1.44,2.26-3.3c2.26-1.86,4.72-0.61,6.78-0.82c2.05-0.21,4.37-0.82,6.02,0
			c1.46,0.73,0.32,2.76,0.2,4.21c0.63,1.12,1.57,3.71-0.76,5.55c0.11-1.33,0.1-2.21,0.1-2.21c-0.02-0.11-0.04-0.21-0.06-0.32
			c-0.33-0.51-0.92-1.23-1.81-1.47c-0.88-0.24-1.23,0.2-3.49,0.82c-2.26,0.62-4.52-1.03-4.52-1.03c0.87,2.15-0.4,3.23-1.22,4.12
			c0.24,1.63,0.65,3.23,1.22,4.78c1.01,2.67,1.72,3.62,3.36,2.19h3.62c0.89,1.14,1.47-0.02,1.83-1.54v0.02
			c0.24,0.72,0.37,1.48,0.4,2.24c0,1.01-1.23,2.46-1.23,3.08v1.83h-5.74c-1.85,0-3.98-1.21-4.11-3.27
			c-0.02-0.38-0.01-0.96,0.02-1.62c0.04-0.82,0.1-1.78,0.17-2.65l0.25-2.9c-0.14-0.32-0.3-0.63-0.48-0.92
			c-0.55-0.9-1.5-1.98-2.47-0.92c-1.06,1.15,0.56,4.06,1.65,5.73l-0.2,1.01c0,0-3.44-5.53-3.7-9.52
			C99.13,181.11,101.17,179.9,101.17,179.9"/>
	</g>
</g>
<g>
	<rect x="143.52" y="180.96" class="st2" width="2.39" height="10.57"/>
	<path class="st15" d="M143.01,195.96c0-0.94,0.76-1.71,1.7-1.71c0.94,0,1.71,0.76,1.71,1.7c0,0.94-0.76,1.71-1.7,1.71h-0.01
		C143.77,197.66,143.01,196.9,143.01,195.96"/>
	<path class="st16" d="M121.75,214l-0.94,15.24l0.94,2.19l7.75-3.61c-0.75-0.47-1.05-1.41-0.71-2.23l0.17-0.39l-7.16-17.89
		C122.21,209.3,121.95,211.62,121.75,214"/>
	<path class="st17" d="M95.37,204.29l0.06,0.04c4.52,1.54,3.94,7.5,2.96,10.06c-0.39,0.99-0.83,1.95-1.34,2.88l3.15,26.17
		c2.51-6.83,7.35-11.29,15.75-6.61c1.68,0.94,4.01,2.37,6.69,4.08l-1.91-10.26l0.09-1.42l0.94-15.23c0.2-2.37,0.46-4.69,0.05-6.67
		c-0.3-1.68-1.32-3.15-2.79-4.01l-7.63-4.6h-9.94l-10.21,5.96C92.45,204.1,93.84,204.02,95.37,204.29"/>
	<path class="st16" d="M100.19,243.45l-3.15-26.17c-1.79,3.35-4.43,6.97-7.03,10.19c0.78,9.82,2.61,19.54,5.47,28.97l4.31-11.85
		C99.92,244.2,100.06,243.82,100.19,243.45"/>
	<path class="st19" d="M98.39,214.39c0.98-2.56,1.56-8.52-2.96-10.06l-0.06-0.04c-1.52-0.25-2.92-0.19-4.15,0.39
		c-0.24,0.11-0.47,0.24-0.7,0.39c-0.95,0.63-1.79,1.62-2.52,3.04l-11.24,20.79c4.26,1.07,5.74,3.77,5.6,7.26
		c1.31-1.36,4.44-4.71,7.66-8.7c2.59-3.21,5.24-6.85,7.03-10.19C97.56,216.34,98,215.38,98.39,214.39"/>
	<path class="st20" d="M116.6,265.66l1.43-9.55c-11.57-5.79-18.25-11.53-18.25-11.53l-4.31,11.85l-0.01,0.62
		c-0.12,5.84,4.52,10.67,10.36,10.79h0l11.94,0.25C116.69,267.62,116.35,266.7,116.6,265.66"/>
	<path class="st20" d="M141.98,234.28c3.82-1.16,7.86,1,9.02,4.82c0.09,0.3,0.16,0.61,0.21,0.92c0.46,2.77-1.62,5.6-3.53,7.82
		l-5.32,6.21c-5.82-3.96-13.13-8.87-18.98-12.64L141.98,234.28z M118.04,256.11c3.54,1.77,7.17,3.36,10.88,4.77
		c-5.8,0.74-11.75,2.9-12.29,4.68c0,0.03-0.02,0.07-0.03,0.1L118.04,256.11z"/>
	<path class="st21" d="M152.37,260.9l-3.23,5.54h-0.06l3.36,1.9h11.44c5.1,0,7.53-5.75,7.53-5.75L152.37,260.9z"/>
	<path class="st22" d="M152.37,260.9c0,0-4.27-2.96-9.99-6.85c-5.82-3.96-13.13-8.87-18.98-12.63l-0.76-0.49
		c-2.68-1.71-5.01-3.14-6.69-4.08c-8.39-4.68-13.24-0.22-15.75,6.61c-0.14,0.37-0.27,0.76-0.39,1.13c0,0,6.67,5.74,18.25,11.53
		c3.54,1.77,7.17,3.36,10.88,4.77c1.68-0.23,3.37-0.31,5.06-0.24c3.8,0.2,5.47,0.86,5.47,0.86c-0.23,0.87-0.53,1.72-0.91,2.54
		c3.34,0.93,6.87,1.75,10.55,2.39h0.06L152.37,260.9z"/>
	<path class="st21" d="M133.98,260.65c-1.69-0.07-3.38,0.01-5.06,0.24c-5.8,0.74-11.75,2.9-12.29,4.68c0,0.03-0.02,0.07-0.03,0.1
		c-0.27,1.04,0.08,1.96,1.16,2.43c0.51,0.21,1.05,0.32,1.6,0.33l14.83-0.04c2.14-0.48,3.52-2.58,4.33-4.34
		c0.38-0.82,0.68-1.67,0.91-2.54C139.45,261.51,137.79,260.84,133.98,260.65"/>
	<path class="st13" d="M76.76,228.89c-0.17-0.04-8.14,21.8-10.51,28.31l-6.06,1.33c-5.19,1.89-7.12,5.19-7.12,5.19l0.97,0.64
		c1.14,0.75,2.52,1.06,3.87,0.86l8.49-1.26v0.02c0,0,2.69,0.57,4.29-1.63c0.66-0.85,1-1.91,0.96-2.98
		c4.12-6.51,10.52-16.29,10.79-23.12C82.58,232.72,81.08,229.97,76.76,228.89"/>
	<polygon class="st23" points="70.76,262.28 69.24,263.84 62.55,267.14 61.1,266.26 65.69,261.99 	"/>
</g>
<g id="handnoresult">
	<path class="st13" d="M147.72,225.11l-3.22,0.49l0.86-2.04L147.72,225.11z M129.5,227.81c0.27,0.17,0.59,0.27,0.91,0.27l1.2,0.03
		l8.73,0.18c-2.91,2.65-9.21,8.11-12.54,8.77c-1.7,0.34-3.45-0.87-4.2-2.43c-0.38-0.78-1.85-3.2-1.85-3.2L129.5,227.81z"/>
	<path class="st24" d="M129.5,227.81c0.27,0.17,0.59,0.27,0.91,0.27l1.2,0.03c-0.99-0.02-1.78-0.84-1.76-1.83
		c0-0.23,0.05-0.46,0.14-0.67l7.3-17.24c0.29-0.68,0.96-1.11,1.69-1.1l-1.2-0.03c-0.73-0.01-1.4,0.42-1.69,1.1l-7.14,16.85
		l-0.16,0.39C128.45,226.4,128.75,227.35,129.5,227.81"/>
	<path class="st25" d="M137.3,208.38l-7.3,17.24c-0.39,0.91,0.04,1.97,0.95,2.36c0.21,0.09,0.44,0.14,0.67,0.14l8.73,0.18l1.78,0.04
		h0.02c0.73,0.01,1.39-0.43,1.67-1.1l0.69-1.62l0.86-2.03l-2.44-1.6c-1.52-1.01-2.34-2.79-2.12-4.61l7.29-0.25l3.02-7.12
		c0.39-0.91-0.04-1.97-0.95-2.36c-0.21-0.09-0.44-0.14-0.67-0.14l-1.2-0.02h-0.36l-8.95-0.18
		C138.26,207.28,137.59,207.71,137.3,208.38"/>
	<path class="st13" d="M140.81,217.36c-0.23,1.81,0.59,3.6,2.12,4.61l2.44,1.6l2.36,1.54l0.57-8h-0.18l-7.29,0.25L140.81,217.36z"/>
</g>
<g id="totalsearch">
	<g id="searchnoresultanimation">
		<path class="st26" d="M225.43,173.86c-7.63,7.6-7.64,19.95-0.04,27.58c7.6,7.63,19.95,7.65,27.58,0.04
			c7.63-7.6,7.64-19.95,0.04-27.58C245.4,166.27,233.05,166.25,225.43,173.86 M251.2,199.7c-6.65,6.63-17.41,6.61-24.04-0.04
			c-6.63-6.65-6.61-17.41,0.04-24.04c6.65-6.63,17.41-6.61,24.04,0.03C257.86,182.31,257.85,193.07,251.2,199.7"/>
		<path class="st26" d="M274.68,222.54l-0.71,0.71c-0.39,0.39-1.02,0.39-1.42,0l-21.89-21.95l2.13-2.12l21.89,21.95
			C275.07,221.52,275.07,222.15,274.68,222.54"/>
		<path class="st26" d="M245,194h-11c1.31-1.22,3.29-2,5.5-2C241.71,192,243.69,192.78,245,194"/>
	</g>
	<g id="eyesnoresult">
		<path class="st26" d="M235,183c0,1.1-0.9,2-2,2c-1.1,0-2-0.9-2-2c0-1.1,0.9-2,2-2C234.1,181,235,181.9,235,183"/>
		<path class="st26" d="M247,183c0,1.1-0.9,2-2,2c-1.1,0-2-0.9-2-2c0-1.1,0.9-2,2-2C246.1,181,247,181.9,247,183"/>
	</g>
</g>
</svg>
